<mxfile host="app.diagrams.net" modified="2024-03-20T12:54:25.894Z" agent="Mozilla/5.0 (Windows NT 10.0; Win64; x64) AppleWebKit/537.36 (KHTML, like Gecko) Chrome/122.0.0.0 Safari/537.36" etag="LI8_f1Bo7xpCNjdWo6dZ" version="24.0.7" type="google">
  <diagram name="Página-1" id="IgmZKxD_sKufLCnL3MfB">
    <mxGraphModel grid="1" page="1" gridSize="10" guides="1" tooltips="1" connect="1" arrows="1" fold="1" pageScale="1" pageWidth="827" pageHeight="1169" math="0" shadow="0">
      <root>
        <mxCell id="0" />
        <mxCell id="1" parent="0" />
        <mxCell id="hb8-blfBkUbUmH6TVIjf-28" style="rounded=0;orthogonalLoop=1;jettySize=auto;html=1;exitX=0.5;exitY=0.5;exitDx=0;exitDy=0;exitPerimeter=0;strokeColor=default;endArrow=none;endFill=0;entryX=0;entryY=0.5;entryDx=0;entryDy=0;" edge="1" parent="1" source="hb8-blfBkUbUmH6TVIjf-4" target="hb8-blfBkUbUmH6TVIjf-21">
          <mxGeometry relative="1" as="geometry">
            <mxPoint x="85" y="170" as="sourcePoint" />
            <mxPoint x="280" y="185" as="targetPoint" />
          </mxGeometry>
        </mxCell>
        <mxCell id="hb8-blfBkUbUmH6TVIjf-21" value="Reportar publicação" style="ellipse;whiteSpace=wrap;html=1;fillColor=#dae8fc;strokeColor=#6c8ebf;" vertex="1" parent="1">
          <mxGeometry x="540" y="50" width="130" height="50" as="geometry" />
        </mxCell>
        <mxCell id="IUF4r-7HwIg6zXIY6HoC-2" value="Administrador" style="shape=umlActor;verticalLabelPosition=bottom;verticalAlign=top;html=1;outlineConnect=0;fillColor=#f8cecc;strokeColor=#b85450;" vertex="1" parent="1">
          <mxGeometry x="60" y="490" width="30" height="60" as="geometry" />
        </mxCell>
        <mxCell id="IUF4r-7HwIg6zXIY6HoC-5" value="" style="whiteSpace=wrap;html=1;aspect=fixed;fillColor=none;movable=1;editable=1;resizable=1;rotatable=1;deletable=1;locked=0;connectable=1;pointerEvents=0;resizeHeight=1;resizeWidth=1;" vertex="1" parent="1">
          <mxGeometry x="140" y="-60" width="760" height="760" as="geometry" />
        </mxCell>
        <mxCell id="hb8-blfBkUbUmH6TVIjf-7" style="edgeStyle=orthogonalEdgeStyle;rounded=0;orthogonalLoop=1;jettySize=auto;html=1;exitX=0.5;exitY=0;exitDx=0;exitDy=0;exitPerimeter=0;endArrow=block;endFill=0;" edge="1" parent="1" source="hb8-blfBkUbUmH6TVIjf-3">
          <mxGeometry relative="1" as="geometry">
            <mxPoint x="75" y="220" as="targetPoint" />
          </mxGeometry>
        </mxCell>
        <mxCell id="hb8-blfBkUbUmH6TVIjf-3" value="Moderador" style="shape=umlActor;verticalLabelPosition=bottom;verticalAlign=top;html=1;outlineConnect=0;fillColor=#fff2cc;strokeColor=#d6b656;" vertex="1" parent="1">
          <mxGeometry x="60" y="330" width="30" height="60" as="geometry" />
        </mxCell>
        <mxCell id="hb8-blfBkUbUmH6TVIjf-4" value="Usuário" style="shape=umlActor;verticalLabelPosition=bottom;verticalAlign=top;html=1;outlineConnect=0;fillColor=#dae8fc;strokeColor=#6c8ebf;" vertex="1" parent="1">
          <mxGeometry x="60" y="130" width="30" height="60" as="geometry" />
        </mxCell>
        <mxCell id="hb8-blfBkUbUmH6TVIjf-8" style="edgeStyle=orthogonalEdgeStyle;rounded=0;orthogonalLoop=1;jettySize=auto;html=1;exitX=0.5;exitY=0;exitDx=0;exitDy=0;exitPerimeter=0;endArrow=block;endFill=0;" edge="1" parent="1">
          <mxGeometry relative="1" as="geometry">
            <mxPoint x="74.53999999999999" y="490" as="sourcePoint" />
            <mxPoint x="74.96" y="420" as="targetPoint" />
          </mxGeometry>
        </mxCell>
        <mxCell id="hb8-blfBkUbUmH6TVIjf-20" value="Apagar publicações&lt;span style=&quot;color: rgba(0, 0, 0, 0); font-family: monospace; font-size: 0px; text-align: start; text-wrap: nowrap;&quot;&gt;%3CmxGraphModel%3E%3Croot%3E%3CmxCell%20id%3D%220%22%2F%3E%3CmxCell%20id%3D%221%22%20parent%3D%220%22%2F%3E%3CmxCell%20id%3D%222%22%20style%3D%22rounded%3D0%3BorthogonalLoop%3D1%3BjettySize%3Dauto%3Bhtml%3D1%3BstrokeColor%3Ddefault%3BendArrow%3Dnone%3BendFill%3D0%3BentryX%3D0%3BentryY%3D0.5%3BentryDx%3D0%3BentryDy%3D0%3BexitX%3D0.5%3BexitY%3D0.5%3BexitDx%3D0%3BexitDy%3D0%3BexitPerimeter%3D0%3B%22%20edge%3D%221%22%20parent%3D%221%22%3E%3CmxGeometry%20relative%3D%221%22%20as%3D%22geometry%22%3E%3CmxPoint%20x%3D%2275%22%20y%3D%22360%22%20as%3D%22sourcePoint%22%2F%3E%3CmxPoint%20x%3D%22287%22%20y%3D%22380%22%20as%3D%22targetPoint%22%2F%3E%3C%2FmxGeometry%3E%3C%2FmxCell%3E%3C%2Froot%3E%3C%2FmxGraphModel%3E&lt;/span&gt;" style="ellipse;whiteSpace=wrap;html=1;fillColor=#fff2cc;strokeColor=#d6b656;" vertex="1" parent="1">
          <mxGeometry x="320" y="330" width="125" height="50" as="geometry" />
        </mxCell>
        <mxCell id="hb8-blfBkUbUmH6TVIjf-22" value="Votar em publicações e comentários" style="ellipse;whiteSpace=wrap;html=1;fillColor=#dae8fc;strokeColor=#6c8ebf;" vertex="1" parent="1">
          <mxGeometry x="650" y="100" width="160" height="50" as="geometry" />
        </mxCell>
        <mxCell id="hb8-blfBkUbUmH6TVIjf-30" style="rounded=0;orthogonalLoop=1;jettySize=auto;html=1;strokeColor=default;endArrow=none;endFill=0;entryX=0;entryY=0.5;entryDx=0;entryDy=0;" edge="1" parent="1" source="hb8-blfBkUbUmH6TVIjf-4" target="hb8-blfBkUbUmH6TVIjf-22">
          <mxGeometry relative="1" as="geometry">
            <mxPoint x="80" y="320" as="sourcePoint" />
            <mxPoint x="280" y="265" as="targetPoint" />
          </mxGeometry>
        </mxCell>
        <mxCell id="hb8-blfBkUbUmH6TVIjf-32" style="rounded=0;orthogonalLoop=1;jettySize=auto;html=1;strokeColor=default;endArrow=none;endFill=0;entryX=0;entryY=0.5;entryDx=0;entryDy=0;exitX=0.5;exitY=0.5;exitDx=0;exitDy=0;exitPerimeter=0;" edge="1" parent="1" source="hb8-blfBkUbUmH6TVIjf-3" target="hb8-blfBkUbUmH6TVIjf-20">
          <mxGeometry relative="1" as="geometry">
            <mxPoint x="90" y="330" as="sourcePoint" />
            <mxPoint x="280" y="325" as="targetPoint" />
          </mxGeometry>
        </mxCell>
        <mxCell id="hb8-blfBkUbUmH6TVIjf-33" value="Gerenciar reports" style="ellipse;whiteSpace=wrap;html=1;fillColor=#fff2cc;strokeColor=#d6b656;" vertex="1" parent="1">
          <mxGeometry x="220" y="280" width="130" height="50" as="geometry" />
        </mxCell>
        <mxCell id="hb8-blfBkUbUmH6TVIjf-35" style="rounded=0;orthogonalLoop=1;jettySize=auto;html=1;strokeColor=default;endArrow=none;endFill=0;entryX=0;entryY=0.5;entryDx=0;entryDy=0;exitX=0.5;exitY=0.5;exitDx=0;exitDy=0;exitPerimeter=0;" edge="1" parent="1" source="hb8-blfBkUbUmH6TVIjf-3" target="hb8-blfBkUbUmH6TVIjf-33">
          <mxGeometry relative="1" as="geometry">
            <mxPoint x="90" y="330" as="sourcePoint" />
            <mxPoint x="240" y="345" as="targetPoint" />
          </mxGeometry>
        </mxCell>
        <mxCell id="hb8-blfBkUbUmH6TVIjf-36" value="Promover a moderador" style="ellipse;whiteSpace=wrap;html=1;fillColor=#f8cecc;strokeColor=#b85450;" vertex="1" parent="1">
          <mxGeometry x="198.75" y="495" width="147.5" height="50" as="geometry" />
        </mxCell>
        <mxCell id="hb8-blfBkUbUmH6TVIjf-38" style="rounded=0;orthogonalLoop=1;jettySize=auto;html=1;strokeColor=default;endArrow=none;endFill=0;entryX=0;entryY=0.5;entryDx=0;entryDy=0;exitX=0.5;exitY=0.5;exitDx=0;exitDy=0;exitPerimeter=0;" edge="1" parent="1" source="IUF4r-7HwIg6zXIY6HoC-2" target="hb8-blfBkUbUmH6TVIjf-36">
          <mxGeometry relative="1" as="geometry">
            <mxPoint x="90" y="480" as="sourcePoint" />
            <mxPoint x="240" y="515" as="targetPoint" />
          </mxGeometry>
        </mxCell>
        <mxCell id="hb8-blfBkUbUmH6TVIjf-39" value="Logar de múltiplas formas" style="ellipse;whiteSpace=wrap;html=1;fillColor=#dae8fc;strokeColor=#6c8ebf;" vertex="1" parent="1">
          <mxGeometry x="520" y="230" width="130" height="50" as="geometry" />
        </mxCell>
        <mxCell id="hb8-blfBkUbUmH6TVIjf-41" style="rounded=0;orthogonalLoop=1;jettySize=auto;html=1;strokeColor=default;endArrow=none;endFill=0;entryX=0;entryY=0.5;entryDx=0;entryDy=0;" edge="1" parent="1" target="hb8-blfBkUbUmH6TVIjf-39">
          <mxGeometry relative="1" as="geometry">
            <mxPoint x="80" y="160" as="sourcePoint" />
            <mxPoint x="424" y="185" as="targetPoint" />
          </mxGeometry>
        </mxCell>
        <mxCell id="hb8-blfBkUbUmH6TVIjf-42" value="Buscar e filtrar" style="ellipse;whiteSpace=wrap;html=1;fillColor=#dae8fc;strokeColor=#6c8ebf;" vertex="1" parent="1">
          <mxGeometry x="404" y="20" width="130" height="50" as="geometry" />
        </mxCell>
        <mxCell id="hb8-blfBkUbUmH6TVIjf-44" style="rounded=0;orthogonalLoop=1;jettySize=auto;html=1;strokeColor=default;endArrow=none;endFill=0;entryX=0;entryY=0.5;entryDx=0;entryDy=0;exitX=0.5;exitY=0.5;exitDx=0;exitDy=0;exitPerimeter=0;" edge="1" parent="1" source="hb8-blfBkUbUmH6TVIjf-4" target="hb8-blfBkUbUmH6TVIjf-42">
          <mxGeometry relative="1" as="geometry">
            <mxPoint x="90" y="170" as="sourcePoint" />
            <mxPoint x="365" y="255" as="targetPoint" />
          </mxGeometry>
        </mxCell>
        <mxCell id="hb8-blfBkUbUmH6TVIjf-45" value="Google" style="shape=umlActor;verticalLabelPosition=bottom;verticalAlign=top;html=1;outlineConnect=0;fillColor=#e1d5e7;strokeColor=#9673a6;" vertex="1" parent="1">
          <mxGeometry x="980" y="310" width="30" height="60" as="geometry" />
        </mxCell>
        <mxCell id="hb8-blfBkUbUmH6TVIjf-49" value="Suap" style="shape=umlActor;verticalLabelPosition=bottom;verticalAlign=top;html=1;outlineConnect=0;fillColor=#d5e8d4;strokeColor=#82b366;" vertex="1" parent="1">
          <mxGeometry x="980" y="200" width="30" height="60" as="geometry" />
        </mxCell>
        <mxCell id="hb8-blfBkUbUmH6TVIjf-51" value="Login com google" style="ellipse;whiteSpace=wrap;html=1;fillColor=#e1d5e7;strokeColor=#9673a6;" vertex="1" parent="1">
          <mxGeometry x="754.42" y="300" width="120" height="40" as="geometry" />
        </mxCell>
        <mxCell id="hb8-blfBkUbUmH6TVIjf-52" value="Login com suap" style="ellipse;whiteSpace=wrap;html=1;fillColor=#d5e8d4;strokeColor=#82b366;" vertex="1" parent="1">
          <mxGeometry x="754.42" y="220" width="120" height="40" as="geometry" />
        </mxCell>
        <mxCell id="hb8-blfBkUbUmH6TVIjf-53" value="Login com email" style="ellipse;whiteSpace=wrap;html=1;fillColor=#dae8fc;strokeColor=#6c8ebf;" vertex="1" parent="1">
          <mxGeometry x="754.42" y="380" width="120" height="40" as="geometry" />
        </mxCell>
        <mxCell id="hb8-blfBkUbUmH6TVIjf-54" style="rounded=0;orthogonalLoop=1;jettySize=auto;html=1;strokeColor=default;endArrow=none;endFill=0;exitX=1;exitY=0.5;exitDx=0;exitDy=0;" edge="1" parent="1" source="hb8-blfBkUbUmH6TVIjf-52" target="hb8-blfBkUbUmH6TVIjf-49">
          <mxGeometry relative="1" as="geometry">
            <mxPoint x="750" y="400" as="sourcePoint" />
            <mxPoint x="1050" y="585" as="targetPoint" />
          </mxGeometry>
        </mxCell>
        <mxCell id="hb8-blfBkUbUmH6TVIjf-55" style="rounded=0;orthogonalLoop=1;jettySize=auto;html=1;strokeColor=default;endArrow=none;endFill=0;exitX=1;exitY=0.5;exitDx=0;exitDy=0;entryX=0.5;entryY=0.5;entryDx=0;entryDy=0;entryPerimeter=0;" edge="1" parent="1" source="hb8-blfBkUbUmH6TVIjf-51" target="hb8-blfBkUbUmH6TVIjf-45">
          <mxGeometry relative="1" as="geometry">
            <mxPoint x="710" y="355" as="sourcePoint" />
            <mxPoint x="810" y="229" as="targetPoint" />
          </mxGeometry>
        </mxCell>
        <mxCell id="hb8-blfBkUbUmH6TVIjf-56" style="rounded=0;orthogonalLoop=1;jettySize=auto;html=1;strokeColor=default;endArrow=none;endFill=0;exitX=0.974;exitY=0.257;exitDx=0;exitDy=0;dashed=1;startArrow=open;startFill=0;entryX=0;entryY=0.5;entryDx=0;entryDy=0;exitPerimeter=0;" edge="1" parent="1" source="hb8-blfBkUbUmH6TVIjf-39" target="hb8-blfBkUbUmH6TVIjf-52">
          <mxGeometry relative="1" as="geometry">
            <mxPoint x="710" y="355" as="sourcePoint" />
            <mxPoint x="810" y="229" as="targetPoint" />
          </mxGeometry>
        </mxCell>
        <mxCell id="hb8-blfBkUbUmH6TVIjf-57" value="&amp;lt;&amp;lt;extend&amp;gt;&amp;gt;" style="edgeLabel;html=1;align=center;verticalAlign=middle;resizable=0;points=[];" connectable="0" vertex="1" parent="hb8-blfBkUbUmH6TVIjf-56">
          <mxGeometry x="0.1429" y="-4" relative="1" as="geometry">
            <mxPoint x="4" as="offset" />
          </mxGeometry>
        </mxCell>
        <mxCell id="hb8-blfBkUbUmH6TVIjf-58" style="rounded=0;orthogonalLoop=1;jettySize=auto;html=1;strokeColor=default;endArrow=none;endFill=0;exitX=1;exitY=0.5;exitDx=0;exitDy=0;dashed=1;startArrow=open;startFill=0;entryX=0;entryY=0.5;entryDx=0;entryDy=0;" edge="1" parent="1" source="hb8-blfBkUbUmH6TVIjf-39" target="hb8-blfBkUbUmH6TVIjf-51">
          <mxGeometry relative="1" as="geometry">
            <mxPoint x="520" y="355" as="sourcePoint" />
            <mxPoint x="652" y="322" as="targetPoint" />
          </mxGeometry>
        </mxCell>
        <mxCell id="hb8-blfBkUbUmH6TVIjf-59" value="&amp;lt;&amp;lt;extend&amp;gt;&amp;gt;" style="edgeLabel;html=1;align=center;verticalAlign=middle;resizable=0;points=[];" connectable="0" vertex="1" parent="hb8-blfBkUbUmH6TVIjf-58">
          <mxGeometry x="0.1429" y="-4" relative="1" as="geometry">
            <mxPoint as="offset" />
          </mxGeometry>
        </mxCell>
        <mxCell id="hb8-blfBkUbUmH6TVIjf-61" style="rounded=0;orthogonalLoop=1;jettySize=auto;html=1;strokeColor=default;endArrow=none;endFill=0;exitX=0.974;exitY=0.773;exitDx=0;exitDy=0;dashed=1;startArrow=open;startFill=0;entryX=0;entryY=0.5;entryDx=0;entryDy=0;exitPerimeter=0;" edge="1" parent="1" source="hb8-blfBkUbUmH6TVIjf-39" target="hb8-blfBkUbUmH6TVIjf-53">
          <mxGeometry relative="1" as="geometry">
            <mxPoint x="470" y="370" as="sourcePoint" />
            <mxPoint x="520" y="425" as="targetPoint" />
          </mxGeometry>
        </mxCell>
        <mxCell id="hb8-blfBkUbUmH6TVIjf-62" value="&amp;lt;&amp;lt;extend&amp;gt;&amp;gt;" style="edgeLabel;html=1;align=center;verticalAlign=middle;resizable=0;points=[];" connectable="0" vertex="1" parent="hb8-blfBkUbUmH6TVIjf-61">
          <mxGeometry x="0.1429" y="-4" relative="1" as="geometry">
            <mxPoint as="offset" />
          </mxGeometry>
        </mxCell>
        <mxCell id="hb8-blfBkUbUmH6TVIjf-63" value="Gerenciar os próprios comentários&amp;nbsp;" style="ellipse;whiteSpace=wrap;html=1;fillColor=#dae8fc;strokeColor=#6c8ebf;" vertex="1" parent="1">
          <mxGeometry x="590" y="160" width="130" height="50" as="geometry" />
        </mxCell>
        <mxCell id="hb8-blfBkUbUmH6TVIjf-64" style="rounded=0;orthogonalLoop=1;jettySize=auto;html=1;strokeColor=default;endArrow=none;endFill=0;entryX=0;entryY=0.5;entryDx=0;entryDy=0;exitX=0.5;exitY=0.5;exitDx=0;exitDy=0;exitPerimeter=0;" edge="1" parent="1" source="hb8-blfBkUbUmH6TVIjf-4" target="hb8-blfBkUbUmH6TVIjf-63">
          <mxGeometry relative="1" as="geometry">
            <mxPoint x="90" y="170" as="sourcePoint" />
            <mxPoint x="520" y="255" as="targetPoint" />
          </mxGeometry>
        </mxCell>
        <mxCell id="hb8-blfBkUbUmH6TVIjf-66" style="rounded=0;orthogonalLoop=1;jettySize=auto;html=1;strokeColor=default;endArrow=none;endFill=0;entryX=0;entryY=0.5;entryDx=0;entryDy=0;" edge="1" parent="1" target="hb8-blfBkUbUmH6TVIjf-76">
          <mxGeometry relative="1" as="geometry">
            <mxPoint x="80" y="160" as="sourcePoint" />
            <mxPoint x="180" as="targetPoint" />
          </mxGeometry>
        </mxCell>
        <mxCell id="hb8-blfBkUbUmH6TVIjf-68" value="Gerenciar notificações" style="ellipse;whiteSpace=wrap;html=1;fillColor=#dae8fc;strokeColor=#6c8ebf;" vertex="1" parent="1">
          <mxGeometry x="414" y="280" width="130" height="50" as="geometry" />
        </mxCell>
        <mxCell id="hb8-blfBkUbUmH6TVIjf-69" style="rounded=0;orthogonalLoop=1;jettySize=auto;html=1;strokeColor=default;endArrow=none;endFill=0;entryX=-0.019;entryY=0.393;entryDx=0;entryDy=0;entryPerimeter=0;" edge="1" parent="1" target="hb8-blfBkUbUmH6TVIjf-68">
          <mxGeometry relative="1" as="geometry">
            <mxPoint x="80" y="160" as="sourcePoint" />
            <mxPoint x="480" y="305" as="targetPoint" />
          </mxGeometry>
        </mxCell>
        <mxCell id="hb8-blfBkUbUmH6TVIjf-71" value="Banir usuários" style="ellipse;whiteSpace=wrap;html=1;fillColor=#fff2cc;strokeColor=#d6b656;" vertex="1" parent="1">
          <mxGeometry x="450" y="440" width="125" height="50" as="geometry" />
        </mxCell>
        <mxCell id="hb8-blfBkUbUmH6TVIjf-73" style="rounded=0;orthogonalLoop=1;jettySize=auto;html=1;strokeColor=default;endArrow=none;endFill=0;entryX=0;entryY=0.5;entryDx=0;entryDy=0;exitX=0.5;exitY=0.5;exitDx=0;exitDy=0;exitPerimeter=0;" edge="1" parent="1" source="hb8-blfBkUbUmH6TVIjf-3" target="hb8-blfBkUbUmH6TVIjf-71">
          <mxGeometry relative="1" as="geometry">
            <mxPoint x="85" y="370" as="sourcePoint" />
            <mxPoint x="297" y="390" as="targetPoint" />
          </mxGeometry>
        </mxCell>
        <mxCell id="hb8-blfBkUbUmH6TVIjf-74" value="Apagar comentários&lt;span style=&quot;color: rgba(0, 0, 0, 0); font-family: monospace; font-size: 0px; text-align: start; text-wrap: nowrap;&quot;&gt;%3CmxGraphModel%3E%3Croot%3E%3CmxCell%20id%3D%220%22%2F%3E%3CmxCell%20id%3D%221%22%20parent%3D%220%22%2F%3E%3CmxCell%20id%3D%222%22%20style%3D%22rounded%3D0%3BorthogonalLoop%3D1%3BjettySize%3Dauto%3Bhtml%3D1%3BstrokeColor%3Ddefault%3BendArrow%3Dnone%3BendFill%3D0%3BentryX%3D0%3BentryY%3D0.5%3BentryDx%3D0%3BentryDy%3D0%3BexitX%3D0.5%3BexitY%3D0.5%3BexitDx%3D0%3BexitDy%3D0%3BexitPerimeter%3D0%3B%22%20edge%3D%221%22%20parent%3D%221%22%3E%3CmxGeometry%20relative%3D%221%22%20as%3D%22geometry%22%3E%3CmxPoint%20x%3D%2275%22%20y%3D%22360%22%20as%3D%22sourcePoint%22%2F%3E%3CmxPoint%20x%3D%22287%22%20y%3D%22380%22%20as%3D%22targetPoint%22%2F%3E%3C%2FmxGeometry%3E%3C%2FmxCell%3E%3C%2Froot%3E%3C%2FmxGraphModel%3E&lt;/span&gt;" style="ellipse;whiteSpace=wrap;html=1;fillColor=#fff2cc;strokeColor=#d6b656;" vertex="1" parent="1">
          <mxGeometry x="414" y="380" width="125" height="50" as="geometry" />
        </mxCell>
        <mxCell id="hb8-blfBkUbUmH6TVIjf-75" style="rounded=0;orthogonalLoop=1;jettySize=auto;html=1;strokeColor=default;endArrow=none;endFill=0;entryX=0;entryY=0.5;entryDx=0;entryDy=0;" edge="1" parent="1" target="hb8-blfBkUbUmH6TVIjf-74">
          <mxGeometry relative="1" as="geometry">
            <mxPoint x="80" y="360" as="sourcePoint" />
            <mxPoint x="307" y="410" as="targetPoint" />
          </mxGeometry>
        </mxCell>
        <mxCell id="hb8-blfBkUbUmH6TVIjf-76" value="Gerenciar os próprias publicações" style="ellipse;whiteSpace=wrap;html=1;fillColor=#dae8fc;strokeColor=#6c8ebf;" vertex="1" parent="1">
          <mxGeometry x="250" width="130" height="50" as="geometry" />
        </mxCell>
      </root>
    </mxGraphModel>
  </diagram>
</mxfile>
